<svg width="65.000000" height="58.000000" viewBox="0 0 65 58" fill="none" xmlns="http://www.w3.org/2000/svg" xmlns:xlink="http://www.w3.org/1999/xlink">
	<desc>
			Created with Pixso.
	</desc>
	<defs>
		<linearGradient id="paint_linear_517_150_0" x1="0.000000" y1="29.000000" x2="65.000000" y2="29.000000" gradientUnits="userSpaceOnUse">
			<stop offset="0.036458" stop-color="#C3956A"/>
			<stop offset="1.000000" stop-color="#A24F03"/>
		</linearGradient>
	</defs>
	<path d="M64.3467 13.4205L56.628 7.52393C56.1892 7.22424 55.575 6.95679 54.9348 6.76025C54.2913 6.56372 53.625 6.44446 53.092 6.44446L30.875 6.44446L33.4782 22.5555L53.092 22.5555C53.625 22.5555 54.2913 22.4363 54.9315 22.2397C55.5717 22.0432 56.1892 21.7726 56.6248 21.4794L64.3435 15.5762C64.7823 15.283 65 14.8931 65 14.5C65 14.1069 64.7823 13.717 64.3467 13.4205ZM27.625 0L24.375 0C23.478 0 22.75 0.721802 22.75 1.61108L22.75 12.8889L11.908 12.8889C11.3685 12.8889 10.7055 13.0081 10.0652 13.2079C9.42175 13.4012 8.8075 13.6687 8.37201 13.9684L0.653259 19.865C0.214508 20.1582 0 20.5514 0 20.9445C0 21.3375 0.214508 21.7242 0.653259 22.0239L8.37201 27.927C8.8075 28.2202 9.42175 28.4908 10.0652 28.6842C10.7087 28.8776 11.3685 29 11.908 29L22.75 29L22.75 56.3889C22.75 57.2782 23.478 58 24.375 58L27.625 58C28.522 58 29.25 57.2782 29.25 56.3889L29.25 1.61108C29.25 0.721802 28.522 0 27.625 0Z" fill="url(#paint_linear_517_150_0)" fill-opacity="1.000000" fill-rule="nonzero"/>
</svg>
